PathFileType	4	(X/Y/Z)	/home/abdul/Desktop/myosuite/custom_workspace/IK/output/S1_12_3.trc
DataRate	CameraRate	NumFrames	NumMarkers	Units	OrigDataRate	OrigDataStartFrame	OrigNumFrames
200.0	200.0	27	3	mm	200.0	1527	2443
Frame#	Time	V_Shoulder			V_Elbow			V_Wrist		
		X1	Y1	Z1	X2	Y2	Z2	X3	Y3	Z3

1527	7.63	-138.75757068059764	622.281589660182	408.4404257347206	-319.8936362256369	380.850360373733	210.2156483332568	-156.8353818835635	275.13250345981083	397.99863750199563
1528	7.635	-138.7243071902371	622.4485259298917	408.4621925504389	-319.98669619425993	380.89392448500155	210.54728842966708	-156.82109605076343	275.6643913733939	398.484262039104
1529	7.64	-138.69165183671467	622.6143294622326	408.4840137554532	-320.07977553944306	380.9366623389508	210.87873043217093	-156.80809147158737	276.19322897476536	398.9688943839145
1530	7.645	-138.65959742350162	622.7789631966892	408.5059172518284	-320.1728469475704	380.9784656835751	211.21008891075735	-156.79637644864926	276.7186919718492	399.4526020303085
1531	7.65	-138.62813783853156	622.9423897590553	408.5279293200295	-320.26588086028755	381.0192286256547	211.54147032658244	-156.7859553348954	277.24045765328265	399.9354419817707
1532	7.655	-138.59726806599733	623.1045715170654	408.5500745691409	-320.3588455495382	381.058847749141	211.87297278589676	-156.77682843682265	277.7582059913317	400.4174607864302
1533	7.66	-138.56698419411933	623.2654706383322	408.5723758924678	-320.45170720030814	381.0972222295205	212.20468582178216	-156.76899193347984	278.2716207575118	400.8986946103498
1534	7.665	-138.53728341883775	623.4250491505301	408.594854428631	-320.5444300007225	381.1342539441662	212.5366902043853	-156.76243781187682	278.7803906464018	401.3791693486765
1535	7.67	-138.50816404339307	623.5832690037615	408.6175295282448	-320.6369762391292	381.169847578704	212.8690577802131	-156.75715381937607	279.284210402999	401.8589007740789
1536	7.675	-138.47962547377506	623.7400921350292	408.64041872624904	-320.72930640778753	381.20391072942846	213.20185134092938	-156.75312343358553	279.78278194885024	402.337894721707
1537	7.68	-138.4516682100333	623.8954805347279	408.663537719945	-320.82137931277225	381.2363540018153	213.53512452196455	-156.75032585021478	280.2758155020981	402.81614730972547
1538	7.685	-138.42429383345745	624.0493963150615	408.68690035276626	-320.9131521896929	381.26709110518493	213.8689217311184	-156.7487359892939	280.763030686511	403.2936451942912
1539	7.69	-138.39750498965	624.2018017802762	408.710518603794	-321.0045808248216	381.29603894358087	214.20327810720715	-156.7483245200881	281.2441576245234	403.7703658576685
1540	7.695	-138.37130536752844	624.3526594985956	408.7344025830077	-321.09561968121454	381.3231177029293	214.53821950867388	-156.74905790497206	281.7189380092879	404.2462779280096
1541	7.7	-138.34569967430934	624.5019323757259	408.75856053224	-321.1862220294064	381.3482509345524	214.87376253195197	-156.7508984624532	282.187126150752	404.72134152916294
1542	7.705	-138.32069360654086	624.6495837297983	408.78299883178676	-321.27634008225385	381.3713656351073	215.20991455924488	-156.75380444945563	282.6484899907989	405.1955086587235
1543	7.71	-138.29629381726525	624.7955773675957	408.8077220126026	-321.36592513349854	381.39239232302566	215.54667383526032	-156.75773016289492	283.1028120825541	405.66872359239574
1544	7.715	-138.2725078794074	624.9398776619064	408.8327327739921	-321.45492769961925	381.4112651115249	215.88402957231722	-156.7626260604887	283.5498905290442	406.1409233126103
1545	7.72	-138.2493442454994	625.0824496298382	408.8580320066923	-321.54329766453816	381.4279217782579	216.22196208312894	-156.7684389006589	283.98953987650566	406.61203795921426
1546	7.725	-138.22681220386548	625.2232590119105	408.88361882121654	-321.6309844267489	381.44230383166416	216.56044294045677	-156.7751119012899	284.42159195778174	407.08199129995324
1547	7.73	-138.20492183140576	625.3622723517427	408.9094905813208	-321.7179370484305	381.4543565740772	216.899435162725	-156.78258491701192	284.8458966814091	407.5507012183687
1548	7.735	-138.1836839431298	625.4994570761359	408.93564294242947	-321.80410440611365	381.46402916163277	217.23889342459364	-156.79079463458237	285.26232276218985	408.01808021665863
1549	7.74	-138.16311003860463	625.6347815753492	408.9620698948458	-321.889435342467	381.4712746610121	217.5787642913973	-156.7996747858383	285.6707583892587	408.4840359309869
1550	7.745	-138.14321224549445	625.7682152833548	408.9887638115551	-321.9738788187724	381.4760501030423	217.91898647628088	-156.8091563775932	286.07111182789833	408.9484716566815
1551	7.75	-138.12400326038028	625.8997287578529	409.0157155004149	-322.0573840676632	381.47831653316007	218.25949111879015	-156.81916793774997	286.4633119516201	409.4112868807292
1552	7.755	-138.10549628706067	626.0292937598214	409.0429142605124	-322.1399007457008	381.4780390587306	218.6002020836176	-156.82963577680027	286.8473087013144	409.8723778189627
1553	7.76	-138.08770497254434	626.1568833323653	409.07034794245675	-322.22137908537184	381.47518689319554	218.94103627815002	-156.84048426378126	287.2230734685853	410.3316379553371
